# xmcd CD database file
#
# Track frame offsets:
#	150
#	15091
#	33899
#	52123
#	77503
#	98397
#
# Disc length: 2200 seconds
#
# Revision: 2
# Processed by: cddbd v1.5.2PL0 Copyright (c) Steve Scherf et al.
# Submitted via: CDex 1.51
#
DISCID=2f089606
DTITLE=The Glory Gospel Singers - Live Album [CD 2)
DYEAR=1900
DGENRE=Gospel
TTITLE0=Ride on King Jesus
TTITLE1=Walk with me
TTITLE2=Soon ah will be done
TTITLE3=Hallelujah is the highest Praise
TTITLE4=Yes, Jesus loves me
TTITLE5=The Nature Song
EXTD=live album 2/2
EXTT0=
EXTT1=
EXTT2=
EXTT3=
EXTT4=
EXTT5=
PLAYORDER=
